<svg xmlns="http://www.w3.org/2000/svg" viewBox="0 0 220 190" role="img" aria-label="neutral_reviewer">
  <defs>
    <linearGradient id="shell-neutral_reviewer" x1="0" y1="0" x2="0" y2="1">
      <stop offset="0" stop-color="#4a2f8c"></stop>
      <stop offset="0.6" stop-color="#2d1664"></stop>
      <stop offset="1" stop-color="#170a3f"></stop>
    </linearGradient>
    <linearGradient id="ear-neutral_reviewer" x1="0" y1="0" x2="0" y2="1">
      <stop offset="0" stop-color="#5a3aa8"></stop>
      <stop offset="1" stop-color="#2d1664"></stop>
    </linearGradient>
    <linearGradient id="foot-neutral_reviewer" x1="0" y1="0" x2="0" y2="1">
      <stop offset="0" stop-color="#3a2275"></stop>
      <stop offset="1" stop-color="#1c0e4a"></stop>
    </linearGradient>
    <radialGradient id="face-neutral_reviewer" cx="0.5" cy="0.5" r="0.7">
      <stop offset="0" stop-color="#060a1c"></stop>
      <stop offset="0.75" stop-color="#02030a"></stop>
    </radialGradient>
    <filter id="glow-neutral_reviewer" x="-25%" y="-25%" width="150%" height="150%">
      <feDropShadow dx="0" dy="0" stdDeviation="4" flood-color="#a8a8b8" flood-opacity="0.55"></feDropShadow>
      <feDropShadow dx="0" dy="0" stdDeviation="10" flood-color="#a8a8b8" flood-opacity="0.3"></feDropShadow>
    </filter>
    <filter id="symGlow-neutral_reviewer" x="-50%" y="-50%" width="200%" height="200%">
      <feDropShadow dx="0" dy="0" stdDeviation="2" flood-color="#a8a8b8" flood-opacity="0.7"></feDropShadow>
      <feDropShadow dx="0" dy="0" stdDeviation="5" flood-color="#a8a8b8" flood-opacity="0.4"></feDropShadow>
    </filter>
  </defs>

  
  <rect x="4" y="73" width="8" height="42" rx="4" ry="4" fill="url(#ear-neutral_reviewer)" stroke="#a8a8b8" stroke-opacity="0.45" stroke-width="1"></rect>
  <rect x="6" y="85" width="3" height="18" rx="1.5" fill="#a8a8b8" opacity="0.85"></rect>
  <rect x="208" y="73" width="8" height="42" rx="4" ry="4" fill="url(#ear-neutral_reviewer)" stroke="#a8a8b8" stroke-opacity="0.45" stroke-width="1"></rect>
  <rect x="211" y="85" width="3" height="18" rx="1.5" fill="#a8a8b8" opacity="0.85"></rect>

  
  <path d="M54 161 h28 v7 a7 7 0 0 1 -7 7 h-14 a7 7 0 0 1 -7 -7 Z" fill="url(#foot-neutral_reviewer)" stroke="#a8a8b8" stroke-opacity="0.5" stroke-width="1.2"></path>
  <path d="M138 161 h28 v7 a7 7 0 0 1 -7 7 h-14 a7 7 0 0 1 -7 -7 Z" fill="url(#foot-neutral_reviewer)" stroke="#a8a8b8" stroke-opacity="0.5" stroke-width="1.2"></path>

  
  <rect x="10" y="20" width="200" height="148" rx="54" ry="54" fill="url(#shell-neutral_reviewer)" stroke="#a8a8b8" stroke-opacity="0.65" stroke-width="2.5" filter="url(#glow-neutral_reviewer)"></rect>

  
  <rect x="24" y="34" width="172" height="120" rx="42" ry="42" fill="url(#face-neutral_reviewer)" stroke="rgba(255,255,255,0.08)" stroke-width="1"></rect>

  
  <g filter="url(#symGlow-neutral_reviewer)">
    <g transform="translate(68,86)"><line x1="0" y1="4" x2="32" y2="4" stroke="#a8a8b8" stroke-width="4" stroke-linecap="round"></line><line x1="0" y1="12" x2="32" y2="12" stroke="#a8a8b8" stroke-width="4" stroke-linecap="round"></line></g><g transform="translate(120,86)"><line x1="0" y1="4" x2="32" y2="4" stroke="#a8a8b8" stroke-width="4" stroke-linecap="round"></line><line x1="0" y1="12" x2="32" y2="12" stroke="#a8a8b8" stroke-width="4" stroke-linecap="round"></line></g>
  </g>
</svg>